{
  "source": "C:\\Users\\Peter\\Desktop\\stuff\\MIUN\\quantitative_research\\video_compression\\videos\\HEVC_CLASS_B\\ParkScene_1920x1080_24.y4m",
  "output": "C:\\Users\\Peter\\Desktop\\stuff\\MIUN\\quantitative_research\\video_compression\\compressed_videos\\HEVC_CLASS_B\\hevc\\12\\ParkScene_1920x1080_24_hevc.mp4",
  "codec": "hevc",
  "ok": "Input #0, yuv4mpegpipe, from 'C:\\Users\\Peter\\Desktop\\stuff\\MIUN\\quantitative_research\\video_compression\\videos\\HEVC_CLASS_B\\ParkScene_1920x1080_24.y4m':\n  Duration: 00:00:10.00, start: 0.000000, bitrate: 597198 kb/s\n  Stream #0:0: Video: rawvideo (I420 / 0x30323449), yuv420p(progressive), 1920x1080, 24 fps, 24 tbr, 24 tbn\n[out#0/mp4 @ 0000027aa3389c00] Codec AVOption b:a (set bitrate (in bits/s)) has not been used for any stream. The most likely reason is either wrong type (e.g. a video option with no video streams) or that it is a private option of some decoder which was not actually used for any stream.\nStream mapping:\n  Stream #0:0 -> #0:0 (rawvideo (native) -> hevc (libx265))\nPress [q] to stop, [?] for help\n[libx265 @ 0000027aa338cd00] Unknown option: \"aq-mode.\nx265 [info]: HEVC encoder version 4.1+190-8f11c33ac\nx265 [info]: build info [Windows][GCC 15.1.0][64 bit] 10bit\nx265 [info]: using cpu capabilities: MMX2 SSE2Fast LZCNT SSSE3 SSE4.2 AVX FMA3 BMI2 AVX2\nx265 [info]: Main 10 profile, Level-4 (Main tier)\nx265 [info]: Thread pool created using 12 threads\nx265 [info]: Slices                              : 1\nx265 [info]: frame threads / pool features       : 3 / wpp(17 rows)\nx265 [info]: Coding QT: max CU size, min CU size : 64 / 8\nx265 [info]: Residual QT: max TU size, max depth : 32 / 1 inter / 1 intra\nx265 [info]: ME / range / subpel / merge         : star / 57 / 3 / 3\nx265 [info]: Keyframe min / max / scenecut / bias  : 24 / 250 / 40 / 5.00 \nx265 [info]: Lookahead / bframes / badapt        : 25 / 4 / 2\nx265 [info]: b-pyramid / weightp / weightb       : 1 / 1 / 0\nx265 [info]: References / ref-limit  cu / depth  : 4 / on / on\nx265 [info]: AQ: mode / str / qg-size / cu-tree  : 2 / 1.0 / 32 / 1\nx265 [info]: Rate Control / qCompress            : ABR-12000 kbps / 0.60\nx265 [info]: VBV/HRD buffer / max-rate / init    : 12000 / 12000 / 0.750\nx265 [info]: tools: rect limit-modes rd=4 psy-rd=2.00 rdoq=2 psy-rdoq=1.00\nx265 [info]: tools: rskip mode=1 signhide tmvp strong-intra-smoothing lslices=4\nx265 [info]: tools: deblock sao dhdr10-info\nOutput #0, mp4, to 'C:\\Users\\Peter\\Desktop\\stuff\\MIUN\\quantitative_research\\video_compression\\compressed_videos\\HEVC_CLASS_B\\hevc\\12\\ParkScene_1920x1080_24_hevc.mp4':\n  Metadata:\n    encoder         : Lavf62.3.100\n  Stream #0:0: Video: hevc (hev1 / 0x31766568), yuv420p10le(tv, progressive), 1920x1080, q=2-31, 12000 kb/s, 24 fps, 12288 tbn\n    Metadata:\n      encoder         : Lavc62.11.100 libx265\n    Side data:\n      cpb: bitrate max/min/avg: 12000000/0/12000000 buffer size: 12000000 vbv_delay: N/A\nframe=    0 fps=0.0 q=0.0 size=       0KiB time=N/A bitrate=N/A speed=N/A elapsed=0:00:02.03    \nframe=    0 fps=0.0 q=0.0 size=       0KiB time=N/A bitrate=N/A speed=N/A elapsed=0:00:02.63    \nframe=    0 fps=0.0 q=0.0 size=       0KiB time=N/A bitrate=N/A speed=N/A elapsed=0:00:03.24    \nframe=    0 fps=0.0 q=0.0 size=       0KiB time=N/A bitrate=N/A speed=N/A elapsed=0:00:03.80    \nframe=    0 fps=0.0 q=0.0 size=       0KiB time=N/A bitrate=N/A speed=N/A elapsed=0:00:04.41    \nframe=    0 fps=0.0 q=0.0 size=       0KiB time=N/A bitrate=N/A speed=N/A elapsed=0:00:05.03    \nframe=    0 fps=0.0 q=0.0 size=       0KiB time=N/A bitrate=N/A speed=N/A elapsed=0:00:05.69    \nframe=    0 fps=0.0 q=0.0 size=       0KiB time=N/A bitrate=N/A speed=N/A elapsed=0:00:06.29    \nframe=    0 fps=0.0 q=0.0 size=       0KiB time=N/A bitrate=N/A speed=N/A elapsed=0:00:06.91    \nframe=    0 fps=0.0 q=0.0 size=       0KiB time=N/A bitrate=N/A speed=N/A elapsed=0:00:07.53    \nframe=    0 fps=0.0 q=0.0 size=       0KiB time=N/A bitrate=N/A speed=N/A elapsed=0:00:08.13    \nframe=    0 fps=0.0 q=0.0 size=       0KiB time=N/A bitrate=N/A speed=N/A elapsed=0:00:08.77    \nframe=    0 fps=0.0 q=0.0 size=       0KiB time=N/A bitrate=N/A speed=N/A elapsed=0:00:09.37    \nframe=    0 fps=0.0 q=0.0 size=       0KiB time=N/A bitrate=N/A speed=N/A elapsed=0:00:09.99    \nframe=    0 fps=0.0 q=0.0 size=       0KiB time=N/A bitrate=N/A speed=N/A elapsed=0:00:10.60    \nframe=    0 fps=0.0 q=0.0 size=       0KiB time=N/A bitrate=N/A speed=N/A elapsed=0:00:11.18    \nframe=    0 fps=0.0 q=0.0 size=       0KiB time=N/A bitrate=N/A speed=N/A elapsed=0:00:11.73    \nframe=    0 fps=0.0 q=0.0 size=       0KiB time=N/A bitrate=N/A speed=N/A elapsed=0:00:12.27    \nframe=    0 fps=0.0 q=0.0 size=       0KiB time=N/A bitrate=N/A speed=N/A elapsed=0:00:12.84    \nframe=    0 fps=0.0 q=0.0 size=       0KiB time=N/A bitrate=N/A speed=N/A elapsed=0:00:13.45    \nframe=    0 fps=0.0 q=0.0 size=       0KiB time=N/A bitrate=N/A speed=N/A elapsed=0:00:14.08    \nframe=    0 fps=0.0 q=0.0 size=       0KiB time=N/A bitrate=N/A speed=N/A elapsed=0:00:14.75    \nframe=    0 fps=0.0 q=0.0 size=       0KiB time=N/A bitrate=N/A speed=N/A elapsed=0:00:15.37    \nframe=    0 fps=0.0 q=0.0 size=       0KiB time=N/A bitrate=N/A speed=N/A elapsed=0:00:15.94    \nframe=    0 fps=0.0 q=0.0 size=       0KiB time=N/A bitrate=N/A speed=N/A elapsed=0:00:16.52    \nframe=    0 fps=0.0 q=0.0 size=       0KiB time=N/A bitrate=N/A speed=N/A elapsed=0:00:17.16    \nframe=    0 fps=0.0 q=0.0 size=       0KiB time=N/A bitrate=N/A speed=N/A elapsed=0:00:17.75    \nframe=    0 fps=0.0 q=0.0 size=       0KiB time=N/A bitrate=N/A speed=N/A elapsed=0:00:18.41    \nframe=    0 fps=0.0 q=0.0 size=       0KiB time=N/A bitrate=N/A speed=N/A elapsed=0:00:19.06    \nframe=    0 fps=0.0 q=0.0 size=       0KiB time=N/A bitrate=N/A speed=N/A elapsed=0:00:19.72    \nframe=    0 fps=0.0 q=0.0 size=       0KiB time=N/A bitrate=N/A speed=N/A elapsed=0:00:20.33    \nframe=    0 fps=0.0 q=0.0 size=       0KiB time=N/A bitrate=N/A speed=N/A elapsed=0:00:20.95    \nframe=    0 fps=0.0 q=0.0 size=       0KiB time=N/A bitrate=N/A speed=N/A elapsed=0:00:21.57    \nframe=    0 fps=0.0 q=0.0 size=       0KiB time=N/A bitrate=N/A speed=N/A elapsed=0:00:22.26    \nframe=    0 fps=0.0 q=0.0 size=       0KiB time=N/A bitrate=N/A speed=N/A elapsed=0:00:22.90    \nframe=    0 fps=0.0 q=0.0 size=       0KiB time=N/A bitrate=N/A speed=N/A elapsed=0:00:23.51    \nframe=    0 fps=0.0 q=0.0 size=       0KiB time=N/A bitrate=N/A speed=N/A elapsed=0:00:24.13    \nframe=    0 fps=0.0 q=0.0 size=       0KiB time=N/A bitrate=N/A speed=N/A elapsed=0:00:24.76    \nframe=    0 fps=0.0 q=0.0 size=       0KiB time=N/A bitrate=N/A speed=N/A elapsed=0:00:25.39    \nframe=    0 fps=0.0 q=0.0 size=       0KiB time=N/A bitrate=N/A speed=N/A elapsed=0:00:26.06    \nframe=    0 fps=0.0 q=0.0 size=       0KiB time=N/A bitrate=N/A speed=N/A elapsed=0:00:26.67    \nframe=    0 fps=0.0 q=0.0 size=       0KiB time=N/A bitrate=N/A speed=N/A elapsed=0:00:27.27    \nframe=    0 fps=0.0 q=0.0 size=       0KiB time=N/A bitrate=N/A speed=N/A elapsed=0:00:27.94    \nframe=    0 fps=0.0 q=0.0 size=       0KiB time=N/A bitrate=N/A speed=N/A elapsed=0:00:28.60    \nframe=    0 fps=0.0 q=0.0 size=       0KiB time=N/A bitrate=N/A speed=N/A elapsed=0:00:29.18    \nframe=    0 fps=0.0 q=0.0 size=       0KiB time=N/A bitrate=N/A speed=N/A elapsed=0:00:29.76    \nframe=    0 fps=0.0 q=0.0 size=       0KiB time=N/A bitrate=N/A speed=N/A elapsed=0:00:30.31    \nframe=    0 fps=0.0 q=0.0 size=       0KiB time=N/A bitrate=N/A speed=N/A elapsed=0:00:30.90    \nframe=    0 fps=0.0 q=0.0 size=       0KiB time=N/A bitrate=N/A speed=N/A elapsed=0:00:31.50    \nframe=    0 fps=0.0 q=0.0 size=       0KiB time=N/A bitrate=N/A speed=N/A elapsed=0:00:32.14    \nframe=    0 fps=0.0 q=0.0 size=       0KiB time=N/A bitrate=N/A speed=N/A elapsed=0:00:32.79    \nframe=    0 fps=0.0 q=0.0 size=       0KiB time=N/A bitrate=N/A speed=N/A elapsed=0:00:33.35    \nframe=    0 fps=0.0 q=0.0 size=       0KiB time=N/A bitrate=N/A speed=N/A elapsed=0:00:34.00    \nframe=    0 fps=0.0 q=0.0 size=       0KiB time=N/A bitrate=N/A speed=N/A elapsed=0:00:34.57    \nframe=    0 fps=0.0 q=0.0 size=       0KiB time=N/A bitrate=N/A speed=N/A elapsed=0:00:35.22    \nframe=    0 fps=0.0 q=0.0 size=       0KiB time=N/A bitrate=N/A speed=N/A elapsed=0:00:35.89    \nframe=    0 fps=0.0 q=0.0 size=       0KiB time=N/A bitrate=N/A speed=N/A elapsed=0:00:36.45    \nframe=    0 fps=0.0 q=0.0 size=       0KiB time=N/A bitrate=N/A speed=N/A elapsed=0:00:37.07    \nframe=    0 fps=0.0 q=0.0 size=       0KiB time=N/A bitrate=N/A speed=N/A elapsed=0:00:37.64    \nframe=    0 fps=0.0 q=0.0 size=       0KiB time=N/A bitrate=N/A speed=N/A elapsed=0:00:38.21    \nframe=    0 fps=0.0 q=0.0 size=       0KiB time=N/A bitrate=N/A speed=N/A elapsed=0:00:38.82    \nframe=    0 fps=0.0 q=0.0 size=       0KiB time=N/A bitrate=N/A speed=N/A elapsed=0:00:39.45    \nframe=    0 fps=0.0 q=0.0 size=       0KiB time=N/A bitrate=N/A speed=N/A elapsed=0:00:40.03    \nframe=    0 fps=0.0 q=0.0 size=       0KiB time=N/A bitrate=N/A speed=N/A elapsed=0:00:40.62    \nframe=    0 fps=0.0 q=0.0 size=       0KiB time=N/A bitrate=N/A speed=N/A elapsed=0:00:41.22    \nframe=    0 fps=0.0 q=0.0 size=       0KiB time=N/A bitrate=N/A speed=N/A elapsed=0:00:41.76    \nframe=    0 fps=0.0 q=0.0 size=       0KiB time=N/A bitrate=N/A speed=N/A elapsed=0:00:42.30    \nframe=    0 fps=0.0 q=0.0 size=       0KiB time=N/A bitrate=N/A speed=N/A elapsed=0:00:42.87    \nframe=    0 fps=0.0 q=0.0 size=       0KiB time=N/A bitrate=N/A speed=N/A elapsed=0:00:43.42    \nframe=    0 fps=0.0 q=0.0 size=       0KiB time=N/A bitrate=N/A speed=N/A elapsed=0:00:43.97    \nframe=    0 fps=0.0 q=0.0 size=       0KiB time=N/A bitrate=N/A speed=N/A elapsed=0:00:44.51    \nframe=    0 fps=0.0 q=0.0 size=       0KiB time=N/A bitrate=N/A speed=N/A elapsed=0:00:45.05    \nframe=    0 fps=0.0 q=0.0 size=       0KiB time=N/A bitrate=N/A speed=N/A elapsed=0:00:45.60    \nframe=    0 fps=0.0 q=0.0 size=       0KiB time=N/A bitrate=N/A speed=N/A elapsed=0:00:46.16    \nframe=    0 fps=0.0 q=0.0 size=       0KiB time=N/A bitrate=N/A speed=N/A elapsed=0:00:46.69    \nframe=    0 fps=0.0 q=0.0 size=       0KiB time=N/A bitrate=N/A speed=N/A elapsed=0:00:47.27    \nframe=    0 fps=0.0 q=0.0 size=       0KiB time=N/A bitrate=N/A speed=N/A elapsed=0:00:47.84    \nframe=    0 fps=0.0 q=0.0 size=       0KiB time=N/A bitrate=N/A speed=N/A elapsed=0:00:48.38    \nframe=    0 fps=0.0 q=0.0 size=       0KiB time=N/A bitrate=N/A speed=N/A elapsed=0:00:48.93    \nframe=    0 fps=0.0 q=0.0 size=       0KiB time=N/A bitrate=N/A speed=N/A elapsed=0:00:49.50    \nframe=    0 fps=0.0 q=0.0 size=       0KiB time=N/A bitrate=N/A speed=N/A elapsed=0:00:50.04    \nframe=    0 fps=0.0 q=0.0 size=       0KiB time=N/A bitrate=N/A speed=N/A elapsed=0:00:50.56    \nframe=    0 fps=0.0 q=0.0 size=       0KiB time=N/A bitrate=N/A speed=N/A elapsed=0:00:51.12    \nframe=    0 fps=0.0 q=0.0 size=       0KiB time=N/A bitrate=N/A speed=N/A elapsed=0:00:51.69    \nframe=    0 fps=0.0 q=0.0 size=       0KiB time=N/A bitrate=N/A speed=N/A elapsed=0:00:52.24    \nframe=    0 fps=0.0 q=0.0 size=       0KiB time=N/A bitrate=N/A speed=N/A elapsed=0:00:52.77    \nframe=    0 fps=0.0 q=0.0 size=       0KiB time=N/A bitrate=N/A speed=N/A elapsed=0:00:53.33    \nframe=    0 fps=0.0 q=0.0 size=       0KiB time=N/A bitrate=N/A speed=N/A elapsed=0:00:53.85    \nframe=    0 fps=0.0 q=0.0 size=       0KiB time=N/A bitrate=N/A speed=N/A elapsed=0:00:54.36    \nframe=    0 fps=0.0 q=0.0 size=       0KiB time=N/A bitrate=N/A speed=N/A elapsed=0:00:54.92    \nframe=    0 fps=0.0 q=0.0 size=       0KiB time=N/A bitrate=N/A speed=N/A elapsed=0:00:55.50    \nframe=    0 fps=0.0 q=0.0 size=       0KiB time=N/A bitrate=N/A speed=N/A elapsed=0:00:56.04    \nframe=    0 fps=0.0 q=0.0 size=       0KiB time=N/A bitrate=N/A speed=N/A elapsed=0:00:56.60    \nframe=    0 fps=0.0 q=0.0 size=       0KiB time=N/A bitrate=N/A speed=N/A elapsed=0:00:57.13    \nframe=    0 fps=0.0 q=0.0 size=       0KiB time=N/A bitrate=N/A speed=N/A elapsed=0:00:57.67    \nframe=    0 fps=0.0 q=0.0 size=       0KiB time=N/A bitrate=N/A speed=N/A elapsed=0:00:58.24    \nframe=    0 fps=0.0 q=0.0 size=       0KiB time=N/A bitrate=N/A speed=N/A elapsed=0:00:58.85    \nframe=    0 fps=0.0 q=0.0 size=       0KiB time=N/A bitrate=N/A speed=N/A elapsed=0:00:59.38    \nframe=    0 fps=0.0 q=0.0 size=       0KiB time=N/A bitrate=N/A speed=N/A elapsed=0:00:59.91    \nframe=    0 fps=0.0 q=0.0 size=       0KiB time=N/A bitrate=N/A speed=N/A elapsed=0:01:00.43    \nframe=    0 fps=0.0 q=0.0 size=       0KiB time=N/A bitrate=N/A speed=N/A elapsed=0:01:00.97    \nframe=    0 fps=0.0 q=0.0 size=       0KiB time=N/A bitrate=N/A speed=N/A elapsed=0:01:01.54    \nframe=    0 fps=0.0 q=0.0 size=       0KiB time=N/A bitrate=N/A speed=N/A elapsed=0:01:02.09    \nframe=    1 fps=0.0 q=17.3 size=       0KiB time=-00:00:00.04 bitrate=N/A speed=N/A elapsed=0:01:02.59    \nframe=    1 fps=0.0 q=17.3 size=       0KiB time=-00:00:00.04 bitrate=N/A speed=N/A elapsed=0:01:03.15    \nframe=    1 fps=0.0 q=17.3 size=       0KiB time=-00:00:00.04 bitrate=N/A speed=N/A elapsed=0:01:03.70    \nframe=    1 fps=0.0 q=17.3 size=       0KiB time=-00:00:00.04 bitrate=N/A speed=N/A elapsed=0:01:04.28    \nframe=    1 fps=0.0 q=17.3 size=       0KiB time=-00:00:00.04 bitrate=N/A speed=N/A elapsed=0:01:04.85    \nframe=    2 fps=0.0 q=23.4 size=     256KiB time=00:00:00.00 bitrate=N/A speed=   0x elapsed=0:01:05.39    \nframe=    2 fps=0.0 q=23.4 size=     256KiB time=00:00:00.00 bitrate=N/A speed=   0x elapsed=0:01:05.97    \nframe=    2 fps=0.0 q=23.4 size=     256KiB time=00:00:00.00 bitrate=N/A speed=   0x elapsed=0:01:06.52    \nframe=    2 fps=0.0 q=23.4 size=     256KiB time=00:00:00.00 bitrate=N/A speed=   0x elapsed=0:01:07.08    \nframe=    2 fps=0.0 q=23.4 size=     256KiB time=00:00:00.00 bitrate=N/A speed=   0x elapsed=0:01:07.66    \nframe=    3 fps=0.0 q=26.7 size=     512KiB time=00:00:00.04 bitrate=100670.9kbits/s speed=0.000611x elapsed=0:01:08.22    \nframe=    3 fps=0.0 q=26.7 size=     512KiB time=00:00:00.04 bitrate=100670.9kbits/s speed=0.000606x elapsed=0:01:08.78    \nframe=    3 fps=0.0 q=26.7 size=     512KiB time=00:00:00.04 bitrate=100670.9kbits/s speed=0.0006x elapsed=0:01:09.42    \nframe=    3 fps=0.0 q=26.7 size=     512KiB time=00:00:00.04 bitrate=100670.9kbits/s speed=0.000595x elapsed=0:01:09.99    \nframe=    3 fps=0.0 q=26.7 size=     512KiB time=00:00:00.04 bitrate=100670.9kbits/s speed=0.000591x elapsed=0:01:10.53    \nframe=    3 fps=0.0 q=26.7 size=     512KiB time=00:00:00.04 bitrate=100670.9kbits/s speed=0.000586x elapsed=0:01:11.06    \nframe=    3 fps=0.0 q=26.7 size=     512KiB time=00:00:00.04 bitrate=100670.9kbits/s speed=0.000582x elapsed=0:01:11.59    \nframe=    3 fps=0.0 q=26.7 size=     512KiB time=00:00:00.04 bitrate=100670.9kbits/s speed=0.000577x elapsed=0:01:12.17    \nframe=    3 fps=0.0 q=26.7 size=     512KiB time=00:00:00.04 bitrate=100670.9kbits/s speed=0.000573x elapsed=0:01:12.76    \nframe=    3 fps=0.0 q=26.7 size=     512KiB time=00:00:00.04 bitrate=100670.9kbits/s speed=0.000568x elapsed=0:01:13.34    \nframe=    3 fps=0.0 q=26.7 size=     512KiB time=00:00:00.04 bitrate=100670.9kbits/s speed=0.000564x elapsed=0:01:13.90    \nframe=    3 fps=0.0 q=26.7 size=     512KiB time=00:00:00.04 bitrate=100670.9kbits/s speed=0.000559x elapsed=0:01:14.56    \nframe=    3 fps=0.0 q=26.7 size=     512KiB time=00:00:00.04 bitrate=100670.9kbits/s speed=0.000554x elapsed=0:01:15.14    \nframe=    3 fps=0.0 q=26.7 size=     512KiB time=00:00:00.04 bitrate=100670.9kbits/s speed=0.00055x elapsed=0:01:15.70    \nframe=    3 fps=0.0 q=26.7 size=     512KiB time=00:00:00.04 bitrate=100670.9kbits/s speed=0.000546x elapsed=0:01:16.29    \nframe=    3 fps=0.0 q=26.7 size=     512KiB time=00:00:00.04 bitrate=100670.9kbits/s speed=0.000542x elapsed=0:01:16.91    \nframe=    3 fps=0.0 q=26.7 size=     512KiB time=00:00:00.04 bitrate=100670.9kbits/s speed=0.000537x elapsed=0:01:17.52    \nframe=    4 fps=0.1 q=30.0 size=     512KiB time=00:00:00.08 bitrate=50336.1kbits/s speed=0.00107x elapsed=0:01:18.06    \nframe=    4 fps=0.1 q=30.0 size=     512KiB time=00:00:00.08 bitrate=50336.1kbits/s speed=0.00106x elapsed=0:01:18.63    \nframe=    4 fps=0.1 q=30.0 size=     512KiB time=00:00:00.08 bitrate=50336.1kbits/s speed=0.00105x elapsed=0:01:19.21    \nframe=    4 fps=0.1 q=30.0 size=     512KiB time=00:00:00.08 bitrate=50336.1kbits/s speed=0.00104x elapsed=0:01:19.81    \nframe=    4 fps=0.0 q=30.0 size=     512KiB time=00:00:00.08 bitrate=50336.1kbits/s speed=0.00104x elapsed=0:01:20.32    \nframe=    4 fps=0.0 q=30.0 size=     512KiB time=00:00:00.08 bitrate=50336.1kbits/s speed=0.00103x elapsed=0:01:20.87    \nframe=    4 fps=0.0 q=30.0 size=     512KiB time=00:00:00.08 bitrate=50336.1kbits/s speed=0.00102x elapsed=0:01:21.40    \nframe=    4 fps=0.0 q=30.0 size=     512KiB time=00:00:00.08 bitrate=50336.1kbits/s speed=0.00102x elapsed=0:01:21.99    \nframe=    5 fps=0.1 q=29.9 size=     512KiB time=00:00:00.12 bitrate=33557.2kbits/s speed=0.00151x elapsed=0:01:22.56    \nframe=    5 fps=0.1 q=29.9 size=     512KiB time=00:00:00.12 bitrate=33557.2kbits/s speed=0.0015x elapsed=0:01:23.12    \nframe=    5 fps=0.1 q=29.9 size=     512KiB time=00:00:00.12 bitrate=33557.2kbits/s speed=0.00149x elapsed=0:01:23.68    \nframe=    6 fps=0.1 q=23.0 size=     512KiB time=00:00:00.16 bitrate=25167.9kbits/s speed=0.00198x elapsed=0:01:24.27    \nframe=    6 fps=0.1 q=23.0 size=     512KiB time=00:00:00.16 bitrate=25167.9kbits/s speed=0.00196x elapsed=0:01:24.88    \nframe=    6 fps=0.1 q=23.0 size=     512KiB time=00:00:00.16 bitrate=25167.9kbits/s speed=0.00195x elapsed=0:01:25.44    \nframe=    6 fps=0.1 q=23.0 size=     512KiB time=00:00:00.16 bitrate=25167.9kbits/s speed=0.00194x elapsed=0:01:25.97    \nframe=    7 fps=0.1 q=26.3 size=     512KiB time=00:00:00.20 bitrate=20134.4kbits/s speed=0.00241x elapsed=0:01:26.50    \nframe=    7 fps=0.1 q=26.3 size=     512KiB time=00:00:00.20 bitrate=20134.4kbits/s speed=0.00239x elapsed=0:01:27.04    \nframe=    7 fps=0.1 q=26.3 size=     512KiB time=00:00:00.20 bitrate=20134.4kbits/s speed=0.00238x elapsed=0:01:27.58    \nframe=    7 fps=0.1 q=26.3 size=     512KiB time=00:00:00.20 bitrate=20134.4kbits/s speed=0.00236x elapsed=0:01:28.11    \nframe=    7 fps=0.1 q=26.3 size=     512KiB time=00:00:00.20 bitrate=20134.4kbits/s speed=0.00235x elapsed=0:01:28.66    \nframe=    7 fps=0.1 q=26.3 size=     512KiB time=00:00:00.20 bitrate=20134.4kbits/s speed=0.00234x elapsed=0:01:29.19    \nframe=    7 fps=0.1 q=26.3 size=     512KiB time=00:00:00.20 bitrate=20134.4kbits/s speed=0.00232x elapsed=0:01:29.72    \nframe=    7 fps=0.1 q=26.3 size=     512KiB time=00:00:00.20 bitrate=20134.4kbits/s speed=0.00231x elapsed=0:01:30.25    \nframe=    8 fps=0.1 q=28.3 size=     512KiB time=00:00:00.25 bitrate=16778.6kbits/s speed=0.00275x elapsed=0:01:30.81    \nframe=    8 fps=0.1 q=28.3 size=     512KiB time=00:00:00.25 bitrate=16778.6kbits/s speed=0.00274x elapsed=0:01:31.36    \nframe=    9 fps=0.1 q=28.4 size=     768KiB time=00:00:00.29 bitrate=21571.9kbits/s speed=0.00317x elapsed=0:01:31.92    \nframe=   10 fps=0.1 q=21.7 size=     768KiB time=00:00:00.33 bitrate=18875.4kbits/s speed=0.00361x elapsed=0:01:32.46    \nframe=   10 fps=0.1 q=21.7 size=     768KiB time=00:00:00.33 bitrate=18875.4kbits/s speed=0.00358x elapsed=0:01:33.04    \nframe=   10 fps=0.1 q=21.7 size=     768KiB time=00:00:00.33 bitrate=18875.4kbits/s speed=0.00356x elapsed=0:01:33.56    \nframe=   11 fps=0.1 q=25.8 size=     768KiB time=00:00:00.37 bitrate=16778.2kbits/s speed=0.00399x elapsed=0:01:34.08    \nframe=   11 fps=0.1 q=25.8 size=     768KiB time=00:00:00.37 bitrate=16778.2kbits/s speed=0.00396x elapsed=0:01:34.62    \nframe=   11 fps=0.1 q=25.8 size=     768KiB time=00:00:00.37 bitrate=16778.2kbits/s speed=0.00394x elapsed=0:01:35.15    \nframe=   11 fps=0.1 q=25.8 size=     768KiB time=00:00:00.37 bitrate=16778.2kbits/s speed=0.00392x elapsed=0:01:35.68    \nframe=   11 fps=0.1 q=25.8 size=     768KiB time=00:00:00.37 bitrate=16778.2kbits/s speed=0.0039x elapsed=0:01:36.20    \nframe=   11 fps=0.1 q=25.8 size=     768KiB time=00:00:00.37 bitrate=16778.2kbits/s speed=0.00388x elapsed=0:01:36.72    \nframe=   11 fps=0.1 q=25.8 size=     768KiB time=00:00:00.37 bitrate=16778.2kbits/s speed=0.00386x elapsed=0:01:37.26    \nframe=   12 fps=0.1 q=27.9 size=     768KiB time=00:00:00.41 bitrate=15100.3kbits/s speed=0.00426x elapsed=0:01:37.80    \nframe=   12 fps=0.1 q=27.9 size=     768KiB time=00:00:00.41 bitrate=15100.3kbits/s speed=0.00424x elapsed=0:01:38.35    \nframe=   13 fps=0.1 q=28.4 size=     768KiB time=00:00:00.45 bitrate=13727.6kbits/s speed=0.00464x elapsed=0:01:38.87    \nframe=   14 fps=0.1 q=21.6 size=     768KiB time=00:00:00.50 bitrate=12583.6kbits/s speed=0.00503x elapsed=0:01:39.40    \nframe=   15 fps=0.2 q=26.7 size=    1024KiB time=00:00:00.54 bitrate=15487.3kbits/s speed=0.00542x elapsed=0:01:39.91    \nframe=   16 fps=0.2 q=28.2 size=    1024KiB time=00:00:00.58 bitrate=14381.1kbits/s speed=0.00581x elapsed=0:01:40.42    \nframe=   16 fps=0.2 q=28.2 size=    1024KiB time=00:00:00.58 bitrate=14381.1kbits/s speed=0.00578x elapsed=0:01:40.94    \nframe=   17 fps=0.2 q=28.3 size=    1024KiB time=00:00:00.62 bitrate=13422.3kbits/s speed=0.00616x elapsed=0:01:41.46    \nframe=   17 fps=0.2 q=28.3 size=    1024KiB time=00:00:00.62 bitrate=13422.3kbits/s speed=0.00613x elapsed=0:01:41.98    \nframe=   18 fps=0.2 q=28.2 size=    1024KiB time=00:00:00.66 bitrate=12583.4kbits/s speed=0.0065x elapsed=0:01:42.50    \nframe=   20 fps=0.2 q=25.1 size=    1280KiB time=00:00:00.75 bitrate=13981.5kbits/s speed=0.00728x elapsed=0:01:43.00    \nframe=   20 fps=0.2 q=25.1 size=    1280KiB time=00:00:00.75 bitrate=13981.5kbits/s speed=0.00724x elapsed=0:01:43.52    \nframe=   21 fps=0.2 q=28.1 size=    1280KiB time=00:00:00.79 bitrate=13245.6kbits/s speed=0.00761x elapsed=0:01:44.04    \nframe=   21 fps=0.2 q=28.1 size=    1280KiB time=00:00:00.79 bitrate=13245.6kbits/s speed=0.00757x elapsed=0:01:44.56    \nframe=   22 fps=0.2 q=27.8 size=    1280KiB time=00:00:00.83 bitrate=12583.3kbits/s speed=0.00793x elapsed=0:01:45.07    \nframe=   23 fps=0.2 q=21.0 size=    1280KiB time=00:00:00.87 bitrate=11984.1kbits/s speed=0.00829x elapsed=0:01:45.58    \nframe=   24 fps=0.2 q=24.2 size=    1536KiB time=00:00:00.91 bitrate=13727.2kbits/s speed=0.00864x elapsed=0:01:46.10    \nframe=   25 fps=0.2 q=27.8 size=    1536KiB time=00:00:00.95 bitrate=13130.4kbits/s speed=0.00899x elapsed=0:01:46.62    \nframe=   25 fps=0.2 q=27.8 size=    1536KiB time=00:00:00.95 bitrate=13130.4kbits/s speed=0.00895x elapsed=0:01:47.13    \nframe=   26 fps=0.2 q=27.8 size=    1536KiB time=00:00:01.00 bitrate=12583.3kbits/s speed=0.00929x elapsed=0:01:47.65    \nframe=   28 fps=0.3 q=20.9 size=    1536KiB time=00:00:01.08 bitrate=11615.3kbits/s speed=0.01x elapsed=0:01:48.18    \nframe=   29 fps=0.3 q=24.9 size=    1792KiB time=00:00:01.12 bitrate=13049.3kbits/s speed=0.0104x elapsed=0:01:48.68    \nframe=   29 fps=0.3 q=24.9 size=    1792KiB time=00:00:01.12 bitrate=13049.3kbits/s speed=0.0103x elapsed=0:01:49.20    \nframe=   29 fps=0.3 q=24.9 size=    1792KiB time=00:00:01.12 bitrate=13049.3kbits/s speed=0.0103x elapsed=0:01:49.72    \nframe=   30 fps=0.3 q=27.8 size=    1792KiB time=00:00:01.16 bitrate=12583.2kbits/s speed=0.0106x elapsed=0:01:50.24    \nframe=   31 fps=0.3 q=27.8 size=    1792KiB time=00:00:01.20 bitrate=12149.3kbits/s speed=0.0109x elapsed=0:01:50.75    \nframe=   32 fps=0.3 q=20.9 size=    1792KiB time=00:00:01.25 bitrate=11744.3kbits/s speed=0.0112x elapsed=0:01:51.27    \nframe=   33 fps=0.3 q=25.0 size=    2048KiB time=00:00:01.29 bitrate=12989.1kbits/s speed=0.0116x elapsed=0:01:51.79    \nframe=   33 fps=0.3 q=25.0 size=    2048KiB time=00:00:01.29 bitrate=12989.1kbits/s speed=0.0115x elapsed=0:01:52.29    \nframe=   34 fps=0.3 q=27.8 size=    2048KiB time=00:00:01.33 bitrate=12583.2kbits/s speed=0.0118x elapsed=0:01:52.82    \nframe=   34 fps=0.3 q=27.8 size=    2048KiB time=00:00:01.33 bitrate=12583.2kbits/s speed=0.0118x elapsed=0:01:53.35    \nframe=   35 fps=0.3 q=27.7 size=    2048KiB time=00:00:01.37 bitrate=12201.9kbits/s speed=0.0121x elapsed=0:01:53.86    \nframe=   36 fps=0.3 q=20.9 size=    2048KiB time=00:00:01.41 bitrate=11843.0kbits/s speed=0.0124x elapsed=0:01:54.38    \nframe=   37 fps=0.3 q=24.9 size=    2304KiB time=00:00:01.45 bitrate=12942.7kbits/s speed=0.0127x elapsed=0:01:54.89    \nframe=   37 fps=0.3 q=24.9 size=    2304KiB time=00:00:01.45 bitrate=12942.7kbits/s speed=0.0126x elapsed=0:01:55.41    \nframe=   38 fps=0.3 q=27.8 size=    2304KiB time=00:00:01.50 bitrate=12583.1kbits/s speed=0.0129x elapsed=0:01:55.93    \nframe=   38 fps=0.3 q=27.8 size=    2304KiB time=00:00:01.50 bitrate=12583.1kbits/s speed=0.0129x elapsed=0:01:56.46    \nframe=   39 fps=0.3 q=27.9 size=    2304KiB time=00:00:01.54 bitrate=12243.1kbits/s speed=0.0132x elapsed=0:01:56.98    \nframe=   40 fps=0.3 q=21.0 size=    2304KiB time=00:00:01.58 bitrate=11920.9kbits/s speed=0.0135x elapsed=0:01:57.48    \nframe=   41 fps=0.3 q=25.1 size=    2560KiB time=00:00:01.62 bitrate=12905.8kbits/s speed=0.0138x elapsed=0:01:58.01    \nframe=   41 fps=0.3 q=25.1 size=    2560KiB time=00:00:01.62 bitrate=12905.8kbits/s speed=0.0137x elapsed=0:01:58.54    \nframe=   42 fps=0.4 q=27.9 size=    2560KiB time=00:00:01.66 bitrate=12583.1kbits/s speed=0.014x elapsed=0:01:59.06    \nframe=   43 fps=0.4 q=28.3 size=    2560KiB time=00:00:01.70 bitrate=12276.2kbits/s speed=0.0143x elapsed=0:01:59.56    \nframe=   45 fps=0.4 q=25.0 size=    2816KiB time=00:00:01.79 bitrate=12875.7kbits/s speed=0.0149x elapsed=0:02:00.08    \nframe=   45 fps=0.4 q=25.0 size=    2816KiB time=00:00:01.79 bitrate=12875.7kbits/s speed=0.0149x elapsed=0:02:00.59    \nframe=   45 fps=0.4 q=25.0 size=    2816KiB time=00:00:01.79 bitrate=12875.7kbits/s speed=0.0148x elapsed=0:02:01.12    \nframe=   46 fps=0.4 q=28.0 size=    2816KiB time=00:00:01.83 bitrate=12583.1kbits/s speed=0.0151x elapsed=0:02:01.64    \nframe=   47 fps=0.4 q=27.8 size=    2816KiB time=00:00:01.87 bitrate=12303.5kbits/s speed=0.0153x elapsed=0:02:02.16    \nframe=   48 fps=0.4 q=21.4 size=    2816KiB time=00:00:01.91 bitrate=12036.0kbits/s speed=0.0156x elapsed=0:02:02.68    \nframe=   49 fps=0.4 q=26.8 size=    3072KiB time=00:00:01.95 bitrate=12850.8kbits/s speed=0.0159x elapsed=0:02:03.19    \nframe=   50 fps=0.4 q=27.9 size=    3072KiB time=00:00:02.00 bitrate=12583.1kbits/s speed=0.0162x elapsed=0:02:03.71    \nframe=   50 fps=0.4 q=27.9 size=    3072KiB time=00:00:02.00 bitrate=12583.1kbits/s speed=0.0161x elapsed=0:02:04.24    \nframe=   51 fps=0.4 q=28.5 size=    3072KiB time=00:00:02.04 bitrate=12326.3kbits/s speed=0.0164x elapsed=0:02:04.75    \nframe=   52 fps=0.4 q=28.0 size=    3072KiB time=00:00:02.08 bitrate=12079.8kbits/s speed=0.0166x elapsed=0:02:05.27    \nframe=   53 fps=0.4 q=21.5 size=    3072KiB time=00:00:02.12 bitrate=11842.9kbits/s speed=0.0169x elapsed=0:02:05.80    \nframe=   54 fps=0.4 q=25.1 size=    3328KiB time=00:00:02.16 bitrate=12583.1kbits/s speed=0.0172x elapsed=0:02:06.31    \nframe=   54 fps=0.4 q=25.1 size=    3328KiB time=00:00:02.16 bitrate=12583.1kbits/s speed=0.0171x elapsed=0:02:06.84    \nframe=   55 fps=0.4 q=28.1 size=    3328KiB time=00:00:02.20 bitrate=12345.7kbits/s speed=0.0173x elapsed=0:02:07.34    \nframe=   56 fps=0.4 q=28.1 size=    3328KiB time=00:00:02.25 bitrate=12117.0kbits/s speed=0.0176x elapsed=0:02:07.86    \nframe=   57 fps=0.4 q=21.3 size=    3328KiB time=00:00:02.29 bitrate=11896.7kbits/s speed=0.0178x elapsed=0:02:08.38    \nframe=   58 fps=0.4 q=25.3 size=    3584KiB time=00:00:02.33 bitrate=12583.1kbits/s speed=0.0181x elapsed=0:02:08.90    \nframe=   58 fps=0.4 q=25.3 size=    3584KiB time=00:00:02.33 bitrate=12583.1kbits/s speed=0.018x elapsed=0:02:09.40    \nframe=   58 fps=0.4 q=25.3 size=    3584KiB time=00:00:02.33 bitrate=12583.1kbits/s speed=0.018x elapsed=0:02:09.92    \nframe=   59 fps=0.5 q=28.0 size=    3584KiB time=00:00:02.37 bitrate=12362.3kbits/s speed=0.0182x elapsed=0:02:10.45    \nframe=   60 fps=0.5 q=28.0 size=    3584KiB time=00:00:02.41 bitrate=12149.2kbits/s speed=0.0185x elapsed=0:02:10.96    \nframe=   60 fps=0.5 q=28.0 size=    3584KiB time=00:00:02.41 bitrate=12149.2kbits/s speed=0.0184x elapsed=0:02:11.47    \nframe=   62 fps=0.5 q=25.3 size=    3840KiB time=00:00:02.50 bitrate=12583.1kbits/s speed=0.0189x elapsed=0:02:11.99    \nframe=   62 fps=0.5 q=25.3 size=    3840KiB time=00:00:02.50 bitrate=12583.1kbits/s speed=0.0189x elapsed=0:02:12.50    \nframe=   62 fps=0.5 q=25.3 size=    3840KiB time=00:00:02.50 bitrate=12583.1kbits/s speed=0.0188x elapsed=0:02:13.02    \nframe=   63 fps=0.5 q=28.0 size=    3840KiB time=00:00:02.54 bitrate=12376.8kbits/s speed=0.019x elapsed=0:02:13.53    \nframe=   63 fps=0.5 q=28.0 size=    3840KiB time=00:00:02.54 bitrate=12376.8kbits/s speed=0.019x elapsed=0:02:14.04    \nframe=   64 fps=0.5 q=28.1 size=    3840KiB time=00:00:02.58 bitrate=12177.1kbits/s speed=0.0192x elapsed=0:02:14.57    \nframe=   66 fps=0.5 q=25.3 size=    4096KiB time=00:00:02.66 bitrate=12583.0kbits/s speed=0.0197x elapsed=0:02:15.08    \nframe=   66 fps=0.5 q=25.3 size=    4096KiB time=00:00:02.66 bitrate=12583.0kbits/s speed=0.0197x elapsed=0:02:15.59    \nframe=   67 fps=0.5 q=28.1 size=    4096KiB time=00:00:02.70 bitrate=12389.5kbits/s speed=0.0199x elapsed=0:02:16.12    \nframe=   67 fps=0.5 q=28.1 size=    4096KiB time=00:00:02.70 bitrate=12389.5kbits/s speed=0.0198x elapsed=0:02:16.64    \nframe=   69 fps=0.5 q=21.2 size=    4096KiB time=00:00:02.79 bitrate=12019.6kbits/s speed=0.0204x elapsed=0:02:17.16    \nframe=   69 fps=0.5 q=21.2 size=    4096KiB time=00:00:02.79 bitrate=12019.6kbits/s speed=0.0203x elapsed=0:02:17.68    \nframe=   71 fps=0.5 q=27.5 size=    4352KiB time=00:00:02.87 bitrate=12400.7kbits/s speed=0.0208x elapsed=0:02:18.19    \nframe=   71 fps=0.5 q=27.5 size=    4352KiB time=00:00:02.87 bitrate=12400.7kbits/s speed=0.0207x elapsed=0:02:18.71    \nframe=   72 fps=0.5 q=27.5 size=    4352KiB time=00:00:02.91 bitrate=12223.5kbits/s speed=0.0209x elapsed=0:02:19.23    \nframe=   72 fps=0.5 q=27.5 size=    4352KiB time=00:00:02.91 bitrate=12223.5kbits/s speed=0.0209x elapsed=0:02:19.75    \nframe=   73 fps=0.5 q=27.4 size=    4352KiB time=00:00:02.95 bitrate=12051.4kbits/s speed=0.0211x elapsed=0:02:20.28    \nframe=   74 fps=0.5 q=21.6 size=    4352KiB time=00:00:03.00 bitrate=11884.0kbits/s speed=0.0213x elapsed=0:02:20.81    \nframe=   75 fps=0.5 q=22.0 size=    4608KiB time=00:00:03.04 bitrate=12410.7kbits/s speed=0.0215x elapsed=0:02:21.34    \nframe=   76 fps=0.5 q=28.2 size=    4608KiB time=00:00:03.08 bitrate=12242.9kbits/s speed=0.0217x elapsed=0:02:21.87    \nframe=   76 fps=0.5 q=28.2 size=    4608KiB time=00:00:03.08 bitrate=12242.9kbits/s speed=0.0217x elapsed=0:02:22.39    \nframe=   77 fps=0.5 q=28.2 size=    4608KiB time=00:00:03.12 bitrate=12079.7kbits/s speed=0.0219x elapsed=0:02:22.91    \nframe=   78 fps=0.5 q=28.6 size=    4608KiB time=00:00:03.16 bitrate=11920.8kbits/s speed=0.0221x elapsed=0:02:23.43    \nframe=   79 fps=0.5 q=21.4 size=    4608KiB time=00:00:03.20 bitrate=11766.0kbits/s speed=0.0223x elapsed=0:02:23.94    \nframe=   80 fps=0.6 q=25.9 size=    4864KiB time=00:00:03.25 bitrate=12260.4kbits/s speed=0.0225x elapsed=0:02:24.46    \nframe=   80 fps=0.6 q=25.9 size=    4864KiB time=00:00:03.25 bitrate=12260.4kbits/s speed=0.0224x elapsed=0:02:24.97    \nframe=   81 fps=0.6 q=28.5 size=    4864KiB time=00:00:03.29 bitrate=12105.2kbits/s speed=0.0226x elapsed=0:02:25.49    \nframe=   82 fps=0.6 q=28.4 size=    4864KiB time=00:00:03.33 bitrate=11953.9kbits/s speed=0.0228x elapsed=0:02:26.00    \nframe=   83 fps=0.6 q=21.2 size=    4864KiB time=00:00:03.37 bitrate=11806.3kbits/s speed=0.023x elapsed=0:02:26.53    \nframe=   84 fps=0.6 q=25.5 size=    5120KiB time=00:00:03.41 bitrate=12276.1kbits/s speed=0.0232x elapsed=0:02:27.05    \nframe=   84 fps=0.6 q=25.5 size=    5120KiB time=00:00:03.41 bitrate=12276.1kbits/s speed=0.0232x elapsed=0:02:27.56    \nframe=   85 fps=0.6 q=27.9 size=    5120KiB time=00:00:03.45 bitrate=12128.2kbits/s speed=0.0234x elapsed=0:02:28.08    \nframe=   85 fps=0.6 q=27.9 size=    5120KiB time=00:00:03.45 bitrate=12128.2kbits/s speed=0.0233x elapsed=0:02:28.60    \nframe=   86 fps=0.6 q=28.4 size=    5120KiB time=00:00:03.50 bitrate=11983.8kbits/s speed=0.0235x elapsed=0:02:29.11    \nframe=   87 fps=0.6 q=21.1 size=    5120KiB time=00:00:03.54 bitrate=11842.8kbits/s speed=0.0237x elapsed=0:02:29.64    \nframe=   88 fps=0.6 q=24.0 size=    5376KiB time=00:00:03.58 bitrate=12290.4kbits/s speed=0.0239x elapsed=0:02:30.16    \nframe=   89 fps=0.6 q=27.6 size=    5376KiB time=00:00:03.62 bitrate=12149.1kbits/s speed=0.0241x elapsed=0:02:30.67    \nframe=   90 fps=0.6 q=27.5 size=    5376KiB time=00:00:03.66 bitrate=12011.1kbits/s speed=0.0243x elapsed=0:02:31.20    \nframe=   90 fps=0.6 q=27.5 size=    5376KiB time=00:00:03.66 bitrate=12011.1kbits/s speed=0.0242x elapsed=0:02:31.71    \nframe=   91 fps=0.6 q=27.6 size=    5376KiB time=00:00:03.70 bitrate=11876.1kbits/s speed=0.0244x elapsed=0:02:32.23    \nframe=   92 fps=0.6 q=21.2 size=    5376KiB time=00:00:03.75 bitrate=11744.1kbits/s speed=0.0246x elapsed=0:02:32.74    \nframe=   93 fps=0.6 q=24.8 size=    5632KiB time=00:00:03.79 bitrate=12168.2kbits/s speed=0.0247x elapsed=0:02:33.25    \nframe=   93 fps=0.6 q=24.8 size=    5632KiB time=00:00:03.79 bitrate=12168.2kbits/s speed=0.0247x elapsed=0:02:33.77    \nframe=   94 fps=0.6 q=28.1 size=    5632KiB time=00:00:03.83 bitrate=12035.9kbits/s speed=0.0248x elapsed=0:02:34.28    \nframe=   95 fps=0.6 q=27.8 size=    5632KiB time=00:00:03.87 bitrate=11906.5kbits/s speed=0.025x elapsed=0:02:34.80    \nframe=   95 fps=0.6 q=27.8 size=    5632KiB time=00:00:03.87 bitrate=11906.5kbits/s speed=0.0249x elapsed=0:02:35.32    \nframe=   96 fps=0.6 q=21.1 size=    5632KiB time=00:00:03.91 bitrate=11779.8kbits/s speed=0.0251x elapsed=0:02:35.83    \nframe=   97 fps=0.6 q=25.3 size=    5888KiB time=00:00:03.95 bitrate=12185.6kbits/s speed=0.0253x elapsed=0:02:36.35    \nframe=   97 fps=0.6 q=25.3 size=    5888KiB time=00:00:03.95 bitrate=12185.6kbits/s speed=0.0252x elapsed=0:02:36.86    \nframe=   98 fps=0.6 q=27.8 size=    5888KiB time=00:00:04.00 bitrate=12058.7kbits/s speed=0.0254x elapsed=0:02:37.37    \nframe=   99 fps=0.6 q=27.8 size=    5888KiB time=00:00:04.04 bitrate=11934.4kbits/s speed=0.0256x elapsed=0:02:37.91    \nframe=  100 fps=0.6 q=20.9 size=    5888KiB time=00:00:04.08 bitrate=11812.6kbits/s speed=0.0258x elapsed=0:02:38.43    \nframe=  101 fps=0.6 q=26.6 size=    6144KiB time=00:00:04.12 bitrate=12201.7kbits/s speed=0.026x elapsed=0:02:38.95    \nframe=  102 fps=0.6 q=28.1 size=    6144KiB time=00:00:04.16 bitrate=12079.7kbits/s speed=0.0261x elapsed=0:02:39.46    \nframe=  102 fps=0.6 q=28.1 size=    6144KiB time=00:00:04.16 bitrate=12079.7kbits/s speed=0.026x elapsed=0:02:39.98    \nframe=  103 fps=0.6 q=27.9 size=    6144KiB time=00:00:04.20 bitrate=11960.1kbits/s speed=0.0262x elapsed=0:02:40.48    \nframe=  103 fps=0.6 q=27.9 size=    6144KiB time=00:00:04.20 bitrate=11960.1kbits/s speed=0.0261x elapsed=0:02:41.00    \nframe=  105 fps=0.7 q=20.8 size=    6144KiB time=00:00:04.29 bitrate=11727.8kbits/s speed=0.0266x elapsed=0:02:41.53    \nframe=  105 fps=0.6 q=20.8 size=    6144KiB time=00:00:04.29 bitrate=11727.8kbits/s speed=0.0265x elapsed=0:02:42.05    \nframe=  106 fps=0.7 q=24.7 size=    6400KiB time=00:00:04.33 bitrate=12099.0kbits/s speed=0.0267x elapsed=0:02:42.56    \nframe=  106 fps=0.6 q=24.7 size=    6400KiB time=00:00:04.33 bitrate=12099.0kbits/s speed=0.0266x elapsed=0:02:43.08    \nframe=  107 fps=0.7 q=27.1 size=    6400KiB time=00:00:04.37 bitrate=11983.8kbits/s speed=0.0267x elapsed=0:02:43.60    \nframe=  107 fps=0.7 q=27.1 size=    6400KiB time=00:00:04.37 bitrate=11983.8kbits/s speed=0.0267x elapsed=0:02:44.12    \nframe=  107 fps=0.6 q=27.1 size=    6400KiB time=00:00:04.37 bitrate=11983.8kbits/s speed=0.0266x elapsed=0:02:44.64    \nframe=  108 fps=0.7 q=27.4 size=    6400KiB time=00:00:04.41 bitrate=11870.8kbits/s speed=0.0267x elapsed=0:02:45.15    \nframe=  109 fps=0.7 q=20.8 size=    6400KiB time=00:00:04.45 bitrate=11759.8kbits/s speed=0.0269x elapsed=0:02:45.66    \nframe=  110 fps=0.7 q=24.6 size=    6656KiB time=00:00:04.50 bitrate=12117.0kbits/s speed=0.0271x elapsed=0:02:46.17    \nframe=  110 fps=0.7 q=24.6 size=    6656KiB time=00:00:04.50 bitrate=12117.0kbits/s speed=0.027x elapsed=0:02:46.70    \nframe=  110 fps=0.7 q=24.6 size=    6656KiB time=00:00:04.50 bitrate=12117.0kbits/s speed=0.0269x elapsed=0:02:47.22    \nframe=  111 fps=0.7 q=27.5 size=    6656KiB time=00:00:04.54 bitrate=12005.8kbits/s speed=0.0271x elapsed=0:02:47.74    \nframe=  112 fps=0.7 q=27.3 size=    6656KiB time=00:00:04.58 bitrate=11896.6kbits/s speed=0.0272x elapsed=0:02:48.26    \nframe=  112 fps=0.7 q=27.3 size=    6656KiB time=00:00:04.58 bitrate=11896.6kbits/s speed=0.0272x elapsed=0:02:48.77    \nframe=  113 fps=0.7 q=20.4 size=    6656KiB time=00:00:04.62 bitrate=11789.5kbits/s speed=0.0273x elapsed=0:02:49.30    \nframe=  114 fps=0.7 q=25.5 size=    6912KiB time=00:00:04.66 bitrate=12133.6kbits/s speed=0.0275x elapsed=0:02:49.82    \nframe=  115 fps=0.7 q=27.3 size=    6912KiB time=00:00:04.70 bitrate=12026.2kbits/s speed=0.0276x elapsed=0:02:50.34    \nframe=  115 fps=0.7 q=27.3 size=    6912KiB time=00:00:04.70 bitrate=12026.2kbits/s speed=0.0276x elapsed=0:02:50.85    \nframe=  116 fps=0.7 q=27.2 size=    6912KiB time=00:00:04.75 bitrate=11920.7kbits/s speed=0.0277x elapsed=0:02:51.36    \nframe=  116 fps=0.7 q=27.2 size=    6912KiB time=00:00:04.75 bitrate=11920.7kbits/s speed=0.0276x elapsed=0:02:51.87    \nframe=  117 fps=0.7 q=26.7 size=    6912KiB time=00:00:04.79 bitrate=11817.1kbits/s speed=0.0278x elapsed=0:02:52.39    \nframe=  118 fps=0.7 q=20.4 size=    6912KiB time=00:00:04.83 bitrate=11715.2kbits/s speed=0.028x elapsed=0:02:52.92    \nframe=  118 fps=0.7 q=20.4 size=    6912KiB time=00:00:04.83 bitrate=11715.2kbits/s speed=0.0279x elapsed=0:02:53.43    \nframe=  119 fps=0.7 q=21.0 size=    7168KiB time=00:00:04.87 bitrate=12045.3kbits/s speed=0.028x elapsed=0:02:53.95    \nframe=  120 fps=0.7 q=27.1 size=    7168KiB time=00:00:04.91 bitrate=11943.2kbits/s speed=0.0282x elapsed=0:02:54.47    \nframe=  121 fps=0.7 q=26.7 size=    7168KiB time=00:00:04.95 bitrate=11842.8kbits/s speed=0.0283x elapsed=0:02:54.99    \nframe=  121 fps=0.7 q=26.7 size=    7168KiB time=00:00:04.95 bitrate=11842.8kbits/s speed=0.0283x elapsed=0:02:55.50    \nframe=  122 fps=0.7 q=27.3 size=    7168KiB time=00:00:05.00 bitrate=11744.1kbits/s speed=0.0284x elapsed=0:02:56.03    \nframe=  123 fps=0.7 q=20.8 size=    7168KiB time=00:00:05.04 bitrate=11647.1kbits/s speed=0.0286x elapsed=0:02:56.55    \nframe=  124 fps=0.7 q=24.5 size=    7424KiB time=00:00:05.08 bitrate=11964.2kbits/s speed=0.0287x elapsed=0:02:57.06    \nframe=  124 fps=0.7 q=24.5 size=    7424KiB time=00:00:05.08 bitrate=11964.2kbits/s speed=0.0286x elapsed=0:02:57.58    \nframe=  125 fps=0.7 q=27.9 size=    7424KiB time=00:00:05.12 bitrate=11866.9kbits/s speed=0.0288x elapsed=0:02:58.09    \nframe=  125 fps=0.7 q=27.9 size=    7424KiB time=00:00:05.12 bitrate=11866.9kbits/s speed=0.0287x elapsed=0:02:58.62    \nframe=  126 fps=0.7 q=27.7 size=    7424KiB time=00:00:05.16 bitrate=11771.2kbits/s speed=0.0288x elapsed=0:02:59.13    \nframe=  127 fps=0.7 q=20.5 size=    7424KiB time=00:00:05.20 bitrate=11677.0kbits/s speed=0.029x elapsed=0:02:59.65    \nframe=  128 fps=0.7 q=23.6 size=    7680KiB time=00:00:05.25 bitrate=11983.8kbits/s speed=0.0291x elapsed=0:03:00.16    \nframe=  129 fps=0.7 q=27.6 size=    7680KiB time=00:00:05.29 bitrate=11889.4kbits/s speed=0.0293x elapsed=0:03:00.67    \nframe=  129 fps=0.7 q=27.6 size=    7680KiB time=00:00:05.29 bitrate=11889.4kbits/s speed=0.0292x elapsed=0:03:01.20    \nframe=  130 fps=0.7 q=27.4 size=    7680KiB time=00:00:05.33 bitrate=11796.5kbits/s speed=0.0293x elapsed=0:03:01.71    \nframe=  130 fps=0.7 q=27.4 size=    7680KiB time=00:00:05.33 bitrate=11796.5kbits/s speed=0.0293x elapsed=0:03:02.22    \nframe=  131 fps=0.7 q=26.6 size=    7680KiB time=00:00:05.37 bitrate=11705.1kbits/s speed=0.0294x elapsed=0:03:02.74    \nframe=  131 fps=0.7 q=26.6 size=    7680KiB time=00:00:05.37 bitrate=11705.1kbits/s speed=0.0293x elapsed=0:03:03.25    \nframe=  132 fps=0.7 q=20.3 size=    7680KiB time=00:00:05.41 bitrate=11615.1kbits/s speed=0.0295x elapsed=0:03:03.77    \nframe=  133 fps=0.7 q=23.5 size=    7936KiB time=00:00:05.45 bitrate=11910.6kbits/s speed=0.0296x elapsed=0:03:04.28    \nframe=  133 fps=0.7 q=23.5 size=    7936KiB time=00:00:05.45 bitrate=11910.6kbits/s speed=0.0295x elapsed=0:03:04.80    \nframe=  134 fps=0.7 q=26.9 size=    7936KiB time=00:00:05.50 bitrate=11820.4kbits/s speed=0.0297x elapsed=0:03:05.32    \nframe=  134 fps=0.7 q=26.9 size=    7936KiB time=00:00:05.50 bitrate=11820.4kbits/s speed=0.0296x elapsed=0:03:05.83    \nframe=  135 fps=0.7 q=26.5 size=    7936KiB time=00:00:05.54 bitrate=11731.5kbits/s speed=0.0297x elapsed=0:03:06.35    \nframe=  135 fps=0.7 q=26.5 size=    7936KiB time=00:00:05.54 bitrate=11731.5kbits/s speed=0.0297x elapsed=0:03:06.86    \nframe=  136 fps=0.7 q=26.4 size=    7936KiB time=00:00:05.58 bitrate=11644.0kbits/s speed=0.0298x elapsed=0:03:07.38    \nframe=  137 fps=0.7 q=20.1 size=    7936KiB time=00:00:05.62 bitrate=11557.7kbits/s speed=0.0299x elapsed=0:03:07.89    \nframe=  138 fps=0.7 q=21.3 size=    8192KiB time=00:00:05.66 bitrate=11842.8kbits/s speed=0.0301x elapsed=0:03:08.42    \nframe=  138 fps=0.7 q=21.3 size=    8192KiB time=00:00:05.66 bitrate=11842.8kbits/s speed=0.03x elapsed=0:03:08.93    \nframe=  139 fps=0.7 q=26.7 size=    8448KiB time=00:00:05.70 bitrate=12123.7kbits/s speed=0.0301x elapsed=0:03:09.44    \nframe=  139 fps=0.7 q=26.7 size=    8448KiB time=00:00:05.70 bitrate=12123.7kbits/s speed=0.0301x elapsed=0:03:09.95    \nframe=  139 fps=0.7 q=26.7 size=    8448KiB time=00:00:05.70 bitrate=12123.7kbits/s speed=0.03x elapsed=0:03:10.47    \nframe=  140 fps=0.7 q=26.7 size=    8448KiB time=00:00:05.75 bitrate=12035.9kbits/s speed=0.0301x elapsed=0:03:10.98    \nframe=  140 fps=0.7 q=26.7 size=    8448KiB time=00:00:05.75 bitrate=12035.9kbits/s speed=0.03x elapsed=0:03:11.51    \nframe=  141 fps=0.7 q=26.9 size=    8448KiB time=00:00:05.79 bitrate=11949.3kbits/s speed=0.0302x elapsed=0:03:12.03    \nframe=  143 fps=0.7 q=25.8 size=    8704KiB time=00:00:05.87 bitrate=12136.8kbits/s speed=0.0305x elapsed=0:03:12.54    \nframe=  143 fps=0.7 q=25.8 size=    8704KiB time=00:00:05.87 bitrate=12136.8kbits/s speed=0.0304x elapsed=0:03:13.06    \nframe=  144 fps=0.7 q=27.5 size=    8704KiB time=00:00:05.91 bitrate=12051.3kbits/s speed=0.0306x elapsed=0:03:13.57    \nframe=  144 fps=0.7 q=27.5 size=    8704KiB time=00:00:05.91 bitrate=12051.3kbits/s speed=0.0305x elapsed=0:03:14.10    \nframe=  145 fps=0.7 q=27.0 size=    8704KiB time=00:00:05.95 bitrate=11967.0kbits/s speed=0.0306x elapsed=0:03:14.61    \nframe=  146 fps=0.7 q=26.8 size=    8704KiB time=00:00:06.00 bitrate=11883.9kbits/s speed=0.0307x elapsed=0:03:15.13    \nframe=  147 fps=0.8 q=20.3 size=    8704KiB time=00:00:06.04 bitrate=11802.0kbits/s speed=0.0309x elapsed=0:03:15.64    \nframe=  147 fps=0.7 q=20.3 size=    8704KiB time=00:00:06.04 bitrate=11802.0kbits/s speed=0.0308x elapsed=0:03:16.16    \nframe=  148 fps=0.8 q=23.9 size=    8960KiB time=00:00:06.08 bitrate=12065.9kbits/s speed=0.0309x elapsed=0:03:16.67    \nframe=  148 fps=0.8 q=23.9 size=    8960KiB time=00:00:06.08 bitrate=12065.9kbits/s speed=0.0308x elapsed=0:03:17.20    \nframe=  149 fps=0.8 q=27.2 size=    8960KiB time=00:00:06.12 bitrate=11983.8kbits/s speed=0.031x elapsed=0:03:17.70    \nframe=  149 fps=0.8 q=27.2 size=    8960KiB time=00:00:06.12 bitrate=11983.8kbits/s speed=0.0309x elapsed=0:03:18.24    \nframe=  149 fps=0.7 q=27.2 size=    8960KiB time=00:00:06.12 bitrate=11983.8kbits/s speed=0.0308x elapsed=0:03:18.76    \nframe=  151 fps=0.8 q=20.5 size=    8960KiB time=00:00:06.20 bitrate=11822.9kbits/s speed=0.0312x elapsed=0:03:19.28    \nframe=  152 fps=0.8 q=23.9 size=    9216KiB time=00:00:06.25 bitrate=12079.7kbits/s speed=0.0313x elapsed=0:03:19.81    \nframe=  153 fps=0.8 q=27.5 size=    9216KiB time=00:00:06.29 bitrate=11999.7kbits/s speed=0.0314x elapsed=0:03:20.32    \nframe=  154 fps=0.8 q=27.3 size=    9216KiB time=00:00:06.33 bitrate=11920.7kbits/s speed=0.0315x elapsed=0:03:20.83    \nframe=  154 fps=0.8 q=27.3 size=    9216KiB time=00:00:06.33 bitrate=11920.7kbits/s speed=0.0315x elapsed=0:03:21.34    \nframe=  154 fps=0.8 q=27.3 size=    9216KiB time=00:00:06.33 bitrate=11920.7kbits/s speed=0.0314x elapsed=0:03:21.86    \nframe=  155 fps=0.8 q=26.8 size=    9216KiB time=00:00:06.37 bitrate=11842.8kbits/s speed=0.0315x elapsed=0:03:22.38    \nframe=  156 fps=0.8 q=20.4 size=    9216KiB time=00:00:06.41 bitrate=11765.9kbits/s speed=0.0316x elapsed=0:03:22.89    \nframe=  157 fps=0.8 q=24.0 size=    9472KiB time=00:00:06.45 bitrate=12014.7kbits/s speed=0.0317x elapsed=0:03:23.41    \nframe=  157 fps=0.8 q=24.0 size=    9472KiB time=00:00:06.45 bitrate=12014.7kbits/s speed=0.0317x elapsed=0:03:23.92    \nframe=  158 fps=0.8 q=26.7 size=    9472KiB time=00:00:06.50 bitrate=11937.7kbits/s speed=0.0318x elapsed=0:03:24.44    \nframe=  159 fps=0.8 q=26.6 size=    9472KiB time=00:00:06.54 bitrate=11861.7kbits/s speed=0.0319x elapsed=0:03:24.96    \nframe=  160 fps=0.8 q=20.3 size=    9472KiB time=00:00:06.58 bitrate=11786.6kbits/s speed=0.032x elapsed=0:03:25.47    \nframe=  161 fps=0.8 q=24.0 size=    9728KiB time=00:00:06.62 bitrate=12029.0kbits/s speed=0.0322x elapsed=0:03:25.99    \nframe=  161 fps=0.8 q=24.0 size=    9728KiB time=00:00:06.62 bitrate=12029.0kbits/s speed=0.0321x elapsed=0:03:26.53    \nframe=  162 fps=0.8 q=26.7 size=    9728KiB time=00:00:06.66 bitrate=11953.8kbits/s speed=0.0322x elapsed=0:03:27.05    \nframe=  163 fps=0.8 q=26.6 size=    9728KiB time=00:00:06.70 bitrate=11879.6kbits/s speed=0.0323x elapsed=0:03:27.57    \nframe=  164 fps=0.8 q=20.2 size=    9728KiB time=00:00:06.75 bitrate=11806.2kbits/s speed=0.0324x elapsed=0:03:28.08    \nframe=  164 fps=0.8 q=20.2 size=    9728KiB time=00:00:06.75 bitrate=11806.2kbits/s speed=0.0324x elapsed=0:03:28.60    \nframe=  165 fps=0.8 q=24.3 size=    9728KiB time=00:00:06.79 bitrate=11733.8kbits/s speed=0.0325x elapsed=0:03:29.12    \nframe=  165 fps=0.8 q=24.3 size=    9728KiB time=00:00:06.79 bitrate=11733.8kbits/s speed=0.0324x elapsed=0:03:29.65    \nframe=  166 fps=0.8 q=26.6 size=    9984KiB time=00:00:06.83 bitrate=11969.2kbits/s speed=0.0325x elapsed=0:03:30.15    \nframe=  166 fps=0.8 q=26.6 size=    9984KiB time=00:00:06.83 bitrate=11969.2kbits/s speed=0.0324x elapsed=0:03:30.68    \nframe=  167 fps=0.8 q=26.5 size=    9984KiB time=00:00:06.87 bitrate=11896.6kbits/s speed=0.0326x elapsed=0:03:31.19    \nframe=  168 fps=0.8 q=20.2 size=    9984KiB time=00:00:06.91 bitrate=11825.0kbits/s speed=0.0327x elapsed=0:03:31.72    \nframe=  169 fps=0.8 q=25.2 size=   10240KiB time=00:00:06.95 bitrate=12055.5kbits/s speed=0.0328x elapsed=0:03:32.25    \nframe=  170 fps=0.8 q=26.6 size=   10240KiB time=00:00:07.00 bitrate=11983.8kbits/s speed=0.0329x elapsed=0:03:32.76    \nframe=  170 fps=0.8 q=26.6 size=   10240KiB time=00:00:07.00 bitrate=11983.8kbits/s speed=0.0328x elapsed=0:03:33.28    \nframe=  171 fps=0.8 q=26.7 size=   10240KiB time=00:00:07.04 bitrate=11912.9kbits/s speed=0.0329x elapsed=0:03:33.80    \nframe=  171 fps=0.8 q=26.7 size=   10240KiB time=00:00:07.04 bitrate=11912.9kbits/s speed=0.0329x elapsed=0:03:34.32    \nframe=  171 fps=0.8 q=26.7 size=   10240KiB time=00:00:07.04 bitrate=11912.9kbits/s speed=0.0328x elapsed=0:03:34.83    \nframe=  172 fps=0.8 q=27.0 size=   10240KiB time=00:00:07.08 bitrate=11842.8kbits/s speed=0.0329x elapsed=0:03:35.35    \nframe=  173 fps=0.8 q=20.1 size=   10240KiB time=00:00:07.12 bitrate=11773.5kbits/s speed=0.033x elapsed=0:03:35.87    \nframe=  174 fps=0.8 q=23.4 size=   10496KiB time=00:00:07.16 bitrate=11997.7kbits/s speed=0.0331x elapsed=0:03:36.38    \nframe=  175 fps=0.8 q=26.2 size=   10496KiB time=00:00:07.20 bitrate=11928.4kbits/s speed=0.0332x elapsed=0:03:36.90    \nframe=  175 fps=0.8 q=26.2 size=   10496KiB time=00:00:07.20 bitrate=11928.4kbits/s speed=0.0332x elapsed=0:03:37.42    \nframe=  176 fps=0.8 q=26.0 size=   10496KiB time=00:00:07.25 bitrate=11859.8kbits/s speed=0.0333x elapsed=0:03:37.92    \nframe=  176 fps=0.8 q=26.0 size=   10496KiB time=00:00:07.25 bitrate=11859.8kbits/s speed=0.0332x elapsed=0:03:38.44    \nframe=  177 fps=0.8 q=26.0 size=   10496KiB time=00:00:07.29 bitrate=11792.0kbits/s speed=0.0333x elapsed=0:03:38.95    \nframe=  178 fps=0.8 q=20.6 size=   10496KiB time=00:00:07.33 bitrate=11725.0kbits/s speed=0.0334x elapsed=0:03:39.48    \nframe=  178 fps=0.8 q=20.6 size=   10496KiB time=00:00:07.33 bitrate=11725.0kbits/s speed=0.0333x elapsed=0:03:39.99    \nframe=  179 fps=0.8 q=23.9 size=   10752KiB time=00:00:07.37 bitrate=11943.2kbits/s speed=0.0334x elapsed=0:03:40.51    \nframe=  180 fps=0.8 q=26.8 size=   10752KiB time=00:00:07.41 bitrate=11876.1kbits/s speed=0.0336x elapsed=0:03:41.02    \nframe=  180 fps=0.8 q=26.8 size=   10752KiB time=00:00:07.41 bitrate=11876.1kbits/s speed=0.0335x elapsed=0:03:41.53    \nframe=  181 fps=0.8 q=26.7 size=   10752KiB time=00:00:07.45 bitrate=11809.7kbits/s speed=0.0336x elapsed=0:03:42.05    \nframe=  182 fps=0.8 q=20.1 size=   10752KiB time=00:00:07.50 bitrate=11744.1kbits/s speed=0.0337x elapsed=0:03:42.56    \nframe=  182 fps=0.8 q=20.1 size=   10752KiB time=00:00:07.50 bitrate=11744.1kbits/s speed=0.0336x elapsed=0:03:43.08    \nframe=  183 fps=0.8 q=23.7 size=   11008KiB time=00:00:07.54 bitrate=11957.3kbits/s speed=0.0337x elapsed=0:03:43.60    \nframe=  184 fps=0.8 q=26.7 size=   11008KiB time=00:00:07.58 bitrate=11891.6kbits/s speed=0.0338x elapsed=0:03:44.12    \nframe=  184 fps=0.8 q=26.7 size=   11008KiB time=00:00:07.58 bitrate=11891.6kbits/s speed=0.0338x elapsed=0:03:44.64    \nframe=  185 fps=0.8 q=26.6 size=   11008KiB time=00:00:07.62 bitrate=11826.6kbits/s speed=0.0339x elapsed=0:03:45.16    \nframe=  185 fps=0.8 q=26.6 size=   11008KiB time=00:00:07.62 bitrate=11826.6kbits/s speed=0.0338x elapsed=0:03:45.67    \nframe=  185 fps=0.8 q=26.6 size=   11008KiB time=00:00:07.62 bitrate=11826.6kbits/s speed=0.0337x elapsed=0:03:46.19    \nframe=  186 fps=0.8 q=26.3 size=   11008KiB time=00:00:07.66 bitrate=11762.3kbits/s speed=0.0338x elapsed=0:03:46.71    \nframe=  187 fps=0.8 q=20.5 size=   11008KiB time=00:00:07.70 bitrate=11698.8kbits/s speed=0.0339x elapsed=0:03:47.22    \nframe=  187 fps=0.8 q=20.5 size=   11008KiB time=00:00:07.70 bitrate=11698.8kbits/s speed=0.0338x elapsed=0:03:47.73    \nframe=  188 fps=0.8 q=23.6 size=   11264KiB time=00:00:07.75 bitrate=11906.5kbits/s speed=0.034x elapsed=0:03:48.25    \nframe=  189 fps=0.8 q=26.9 size=   11264KiB time=00:00:07.79 bitrate=11842.8kbits/s speed=0.0341x elapsed=0:03:48.77    \nframe=  189 fps=0.8 q=26.9 size=   11264KiB time=00:00:07.79 bitrate=11842.8kbits/s speed=0.034x elapsed=0:03:49.28    \nframe=  191 fps=0.8 q=24.6 size=   11520KiB time=00:00:07.87 bitrate=11983.8kbits/s speed=0.0343x elapsed=0:03:49.80    \nframe=  191 fps=0.8 q=24.6 size=   11520KiB time=00:00:07.87 bitrate=11983.8kbits/s speed=0.0342x elapsed=0:03:50.32    \nframe=  191 fps=0.8 q=24.6 size=   11520KiB time=00:00:07.87 bitrate=11983.8kbits/s speed=0.0341x elapsed=0:03:50.84    \nframe=  192 fps=0.8 q=27.3 size=   11520KiB time=00:00:07.91 bitrate=11920.7kbits/s speed=0.0342x elapsed=0:03:51.36    \nframe=  192 fps=0.8 q=27.3 size=   11520KiB time=00:00:07.91 bitrate=11920.7kbits/s speed=0.0341x elapsed=0:03:51.86    \nframe=  194 fps=0.8 q=20.1 size=   11520KiB time=00:00:08.00 bitrate=11796.5kbits/s speed=0.0344x elapsed=0:03:52.39    \nframe=  194 fps=0.8 q=20.1 size=   11520KiB time=00:00:08.00 bitrate=11796.5kbits/s speed=0.0343x elapsed=0:03:52.91    \nframe=  195 fps=0.8 q=20.9 size=   11776KiB time=00:00:08.04 bitrate=11996.2kbits/s speed=0.0344x elapsed=0:03:53.43    \nframe=  196 fps=0.8 q=27.0 size=   11776KiB time=00:00:08.08 bitrate=11934.4kbits/s speed=0.0346x elapsed=0:03:53.95    \nframe=  196 fps=0.8 q=27.0 size=   11776KiB time=00:00:08.08 bitrate=11934.4kbits/s speed=0.0345x elapsed=0:03:54.46    \nframe=  197 fps=0.8 q=27.0 size=   11776KiB time=00:00:08.12 bitrate=11873.2kbits/s speed=0.0346x elapsed=0:03:54.98    \nframe=  197 fps=0.8 q=27.0 size=   11776KiB time=00:00:08.12 bitrate=11873.2kbits/s speed=0.0345x elapsed=0:03:55.49    \nframe=  198 fps=0.8 q=27.4 size=   11776KiB time=00:00:08.16 bitrate=11812.6kbits/s speed=0.0346x elapsed=0:03:56.00    \nframe=  199 fps=0.8 q=20.7 size=   11776KiB time=00:00:08.20 bitrate=11752.6kbits/s speed=0.0347x elapsed=0:03:56.51    \nframe=  200 fps=0.8 q=21.9 size=   12032KiB time=00:00:08.25 bitrate=11947.5kbits/s speed=0.0348x elapsed=0:03:57.04    \nframe=  201 fps=0.8 q=27.7 size=   12288KiB time=00:00:08.29 bitrate=12140.3kbits/s speed=0.0349x elapsed=0:03:57.56    \nframe=  201 fps=0.8 q=27.7 size=   12288KiB time=00:00:08.29 bitrate=12140.3kbits/s speed=0.0348x elapsed=0:03:58.07    \nframe=  202 fps=0.8 q=27.6 size=   12288KiB time=00:00:08.33 bitrate=12079.6kbits/s speed=0.0349x elapsed=0:03:58.59    \nframe=  202 fps=0.8 q=27.6 size=   12288KiB time=00:00:08.33 bitrate=12079.6kbits/s speed=0.0349x elapsed=0:03:59.11    \nframe=  203 fps=0.8 q=27.9 size=   12288KiB time=00:00:08.37 bitrate=12019.5kbits/s speed=0.0349x elapsed=0:03:59.63    \nframe=  204 fps=0.8 q=20.6 size=   12288KiB time=00:00:08.41 bitrate=11960.0kbits/s speed=0.035x elapsed=0:04:00.15    \nframe=  204 fps=0.8 q=20.6 size=   12288KiB time=00:00:08.41 bitrate=11960.0kbits/s speed=0.035x elapsed=0:04:00.66    \nframe=  205 fps=0.8 q=25.0 size=   12288KiB time=00:00:08.45 bitrate=11901.1kbits/s speed=0.0351x elapsed=0:04:01.18    \nframe=  205 fps=0.8 q=25.0 size=   12288KiB time=00:00:08.45 bitrate=11901.1kbits/s speed=0.035x elapsed=0:04:01.69    \nframe=  206 fps=0.9 q=27.9 size=   12544KiB time=00:00:08.50 bitrate=12089.5kbits/s speed=0.0351x elapsed=0:04:02.21    \nframe=  207 fps=0.9 q=27.8 size=   12544KiB time=00:00:08.54 bitrate=12030.5kbits/s speed=0.0352x elapsed=0:04:02.72    \nframe=  208 fps=0.9 q=20.3 size=   12544KiB time=00:00:08.58 bitrate=11972.1kbits/s speed=0.0353x elapsed=0:04:03.24    \nframe=  209 fps=0.9 q=24.7 size=   12544KiB time=00:00:08.62 bitrate=11914.3kbits/s speed=0.0354x elapsed=0:04:03.76    \nframe=  209 fps=0.9 q=24.7 size=   12544KiB time=00:00:08.62 bitrate=11914.3kbits/s speed=0.0353x elapsed=0:04:04.27    \nframe=  209 fps=0.9 q=24.7 size=   12544KiB time=00:00:08.62 bitrate=11914.3kbits/s speed=0.0352x elapsed=0:04:04.79    \nframe=  210 fps=0.9 q=27.7 size=   12544KiB time=00:00:08.66 bitrate=11857.0kbits/s speed=0.0353x elapsed=0:04:05.31    \nframe=  211 fps=0.9 q=27.5 size=   12800KiB time=00:00:08.70 bitrate=12041.1kbits/s speed=0.0354x elapsed=0:04:05.84    \nframe=  212 fps=0.9 q=20.1 size=   12800KiB time=00:00:08.75 bitrate=11983.8kbits/s speed=0.0355x elapsed=0:04:06.36    \nframe=  212 fps=0.9 q=20.1 size=   12800KiB time=00:00:08.75 bitrate=11983.8kbits/s speed=0.0354x elapsed=0:04:06.90    \nframe=  213 fps=0.9 q=24.3 size=   12800KiB time=00:00:08.79 bitrate=11927.0kbits/s speed=0.0355x elapsed=0:04:07.42    \nframe=  213 fps=0.9 q=24.3 size=   12800KiB time=00:00:08.79 bitrate=11927.0kbits/s speed=0.0355x elapsed=0:04:07.93    \nframe=  214 fps=0.9 q=27.4 size=   13056KiB time=00:00:08.83 bitrate=12108.1kbits/s speed=0.0356x elapsed=0:04:08.44    \nframe=  214 fps=0.9 q=27.4 size=   13056KiB time=00:00:08.83 bitrate=12108.1kbits/s speed=0.0355x elapsed=0:04:08.97    \nframe=  215 fps=0.9 q=27.2 size=   13056KiB time=00:00:08.87 bitrate=12051.3kbits/s speed=0.0356x elapsed=0:04:09.49    \nframe=  216 fps=0.9 q=19.9 size=   13056KiB time=00:00:08.91 bitrate=11995.0kbits/s speed=0.0357x elapsed=0:04:10.01    \nframe=  218 fps=0.9 q=26.5 size=   13312KiB time=00:00:09.00 bitrate=12116.9kbits/s speed=0.0359x elapsed=0:04:10.54    \nframe=  218 fps=0.9 q=26.5 size=   13312KiB time=00:00:09.00 bitrate=12116.9kbits/s speed=0.0358x elapsed=0:04:11.05    \nframe=  218 fps=0.9 q=26.5 size=   13312KiB time=00:00:09.00 bitrate=12116.9kbits/s speed=0.0358x elapsed=0:04:11.56    \nframe=  219 fps=0.9 q=26.4 size=   13312KiB time=00:00:09.04 bitrate=12061.1kbits/s speed=0.0359x elapsed=0:04:12.08    \nframe=  219 fps=0.9 q=26.4 size=   13312KiB time=00:00:09.04 bitrate=12061.1kbits/s speed=0.0358x elapsed=0:04:12.60    \nframe=  220 fps=0.9 q=26.2 size=   13312KiB time=00:00:09.08 bitrate=12005.8kbits/s speed=0.0359x elapsed=0:04:13.11    \nframe=  221 fps=0.9 q=20.0 size=   13312KiB time=00:00:09.12 bitrate=11950.9kbits/s speed=0.036x elapsed=0:04:13.63    \nframe=  222 fps=0.9 q=20.5 size=   13568KiB time=00:00:09.16 bitrate=12125.4kbits/s speed=0.0361x elapsed=0:04:14.15    \nframe=  222 fps=0.9 q=20.5 size=   13568KiB time=00:00:09.16 bitrate=12125.4kbits/s speed=0.036x elapsed=0:04:14.66    \nframe=  223 fps=0.9 q=27.1 size=   13568KiB time=00:00:09.20 bitrate=12070.5kbits/s speed=0.0361x elapsed=0:04:15.18    \nframe=  223 fps=0.9 q=27.1 size=   13568KiB time=00:00:09.20 bitrate=12070.5kbits/s speed=0.036x elapsed=0:04:15.69    \nframe=  224 fps=0.9 q=26.8 size=   13568KiB time=00:00:09.25 bitrate=12016.2kbits/s speed=0.0361x elapsed=0:04:16.21    \nframe=  225 fps=0.9 q=27.3 size=   13568KiB time=00:00:09.29 bitrate=11962.3kbits/s speed=0.0362x elapsed=0:04:16.73    \nframe=  225 fps=0.9 q=27.3 size=   13568KiB time=00:00:09.29 bitrate=11962.3kbits/s speed=0.0361x elapsed=0:04:17.24    \nframe=  226 fps=0.9 q=20.8 size=   13568KiB time=00:00:09.33 bitrate=11908.9kbits/s speed=0.0362x elapsed=0:04:17.76    \nframe=  227 fps=0.9 q=21.6 size=   13824KiB time=00:00:09.37 bitrate=12079.6kbits/s speed=0.0363x elapsed=0:04:18.29    \nframe=  228 fps=0.9 q=27.4 size=   13824KiB time=00:00:09.41 bitrate=12026.2kbits/s speed=0.0364x elapsed=0:04:18.80    \nframe=  228 fps=0.9 q=27.4 size=   13824KiB time=00:00:09.41 bitrate=12026.2kbits/s speed=0.0363x elapsed=0:04:19.32    \nframe=  229 fps=0.9 q=26.5 size=   13824KiB time=00:00:09.45 bitrate=11973.2kbits/s speed=0.0364x elapsed=0:04:19.83    \nframe=  229 fps=0.9 q=26.5 size=   13824KiB time=00:00:09.45 bitrate=11973.2kbits/s speed=0.0363x elapsed=0:04:20.35    \nframe=  230 fps=0.9 q=26.5 size=   13824KiB time=00:00:09.50 bitrate=11920.7kbits/s speed=0.0364x elapsed=0:04:20.87    \nframe=  232 fps=0.9 q=21.7 size=   14080KiB time=00:00:09.58 bitrate=12035.9kbits/s speed=0.0367x elapsed=0:04:21.39    \nframe=  233 fps=0.9 q=26.8 size=   14080KiB time=00:00:09.62 bitrate=11983.8kbits/s speed=0.0367x elapsed=0:04:21.91    \nframe=  233 fps=0.9 q=26.8 size=   14080KiB time=00:00:09.62 bitrate=11983.8kbits/s speed=0.0367x elapsed=0:04:22.43    \nframe=  234 fps=0.9 q=25.6 size=   14080KiB time=00:00:09.66 bitrate=11932.1kbits/s speed=0.0368x elapsed=0:04:22.94    \nframe=  235 fps=0.9 q=25.6 size=   14080KiB time=00:00:09.70 bitrate=11880.9kbits/s speed=0.0368x elapsed=0:04:23.46    \nframe=  236 fps=0.9 q=22.2 size=   14080KiB time=00:00:09.75 bitrate=11830.1kbits/s speed=0.0369x elapsed=0:04:23.97    \nframe=  236 fps=0.9 q=22.2 size=   14080KiB time=00:00:09.75 bitrate=11830.1kbits/s speed=0.0369x elapsed=0:04:24.49    \nframe=  237 fps=0.9 q=23.4 size=   14336KiB time=00:00:09.79 bitrate=11994.0kbits/s speed=0.0369x elapsed=0:04:25.00    \n[mp4 @ 0000027aa3389dc0] Starting second pass: moving the moov atom to the beginning of the file\n[out#0/mp4 @ 0000027aa3389c00] video:14475KiB audio:0KiB subtitle:0KiB other streams:0KiB global headers:2KiB muxing overhead: 0.043885%\nframe=  240 fps=0.9 q=23.9 Lsize=   14482KiB time=00:00:09.91 bitrate=11963.1kbits/s speed=0.0374x elapsed=0:04:25.39    \nx265 [info]: frame I:      1, Avg QP:17.27  kb/s: 96168.96\nx265 [info]: frame P:     54, Avg QP:20.89  kb/s: 35839.07\nx265 [info]: frame B:    185, Avg QP:26.48  kb/s: 4401.60 \nx265 [info]: Weighted P-Frames: Y:0.0% UV:0.0%\n\nencoded 240 frames in 263.50s (0.91 fps), 11857.39 kb/s, Avg QP:25.18\n",
  "seconds": 266.8371798992157,
  "probe_out": {}
}